<svg width="600" height="140" viewBox="0 0 600 140" fill="none" xmlns="http://www.w3.org/2000/svg">
<path d="M121 106.971C121 107.413 120.824 107.837 120.512 108.149L99.1503 129.512C98.8377 129.824 98.4138 130 97.9717 130H68.7034C67.2185 130 66.4749 128.205 67.5249 127.155L118.155 76.5249C119.205 75.4749 121 76.2185 121 77.7034V106.971ZM54.5552 127.155C55.6052 128.205 54.8615 130 53.3767 130H24.1904C23.7483 130 23.3244 129.824 23.0118 129.512L1.48815 107.988C1.17559 107.676 1 107.252 1 106.81V77.6233C1 76.1385 2.79524 75.3948 3.84518 76.4448L54.5552 127.155ZM3.84518 63.5552C2.79523 64.6052 1 63.8615 1 62.3767V33.1904C1 32.7483 1.17559 32.3244 1.48816 32.0118L23.0118 10.4882C23.3244 10.1756 23.7483 10 24.1904 10H53.3767C54.8615 10 55.6052 11.7952 54.5552 12.8452L3.84518 63.5552ZM120.512 31.8497C120.824 32.1623 121 32.5862 121 33.0282V62.2966C121 63.7815 119.205 64.5251 118.155 63.4751L67.5249 12.8452C66.4749 11.7952 67.2185 10 68.7034 10H97.9718C98.4138 10 98.8377 10.1756 99.1503 10.4882L120.512 31.8497Z" fill="url(#paint0_linear_34_18)"/>
<path d="M50.9523 111.164C50.3014 110.513 50.3014 109.458 50.9523 108.807L84.3718 75.3873C85.0227 74.7364 86.078 74.7364 86.7288 75.3873L94.8942 83.5526C95.545 84.2035 95.545 85.2588 94.8942 85.9097L61.4746 119.329C60.8238 119.98 59.7685 119.98 59.1176 119.329L50.9523 111.164ZM109.625 68.8215C110.276 69.4724 110.276 70.5276 109.625 71.1785L101.46 79.3438C100.809 79.9947 99.7538 79.9947 99.103 79.3438L65.6834 45.9243C65.0326 45.2734 65.0326 44.2182 65.6834 43.5673L73.8488 35.4019C74.4996 34.7511 75.5549 34.7511 76.2058 35.4019L109.625 68.8215ZM19.1322 60.6562C19.7831 60.0053 20.8384 60.0053 21.4893 60.6562L54.9088 94.0757C55.5597 94.7266 55.5597 95.7818 54.9088 96.4327L46.7435 104.598C46.0926 105.249 45.0373 105.249 44.3864 104.598L10.9669 71.1785C10.316 70.5276 10.316 69.4724 10.9669 68.8215L19.1322 60.6562ZM69.64 28.8361C70.2908 29.487 70.2908 30.5423 69.64 31.1931L36.2204 64.6127C35.5695 65.2636 34.5143 65.2636 33.8634 64.6127L25.6981 56.4474C25.0472 55.7965 25.0472 54.7412 25.6981 54.0903L59.1176 20.6708C59.7685 20.0199 60.8238 20.0199 61.4746 20.6708L69.64 28.8361Z" fill="#F1F1F1"/>
<path d="M164.705 31.9286H172.312V39.5357H164.705V31.9286ZM157.097 31.9286H164.705V39.5357H157.097V31.9286ZM157.097 39.5357H164.705V47.1429H157.097V39.5357ZM164.705 39.5357H172.312V47.1429H164.705V39.5357ZM172.312 39.5357H179.919V47.1429H172.312V39.5357ZM172.312 31.9286H179.919V39.5357H172.312V31.9286ZM179.919 31.9286H187.526V39.5357H179.919V31.9286ZM187.526 31.9286H195.133V39.5357H187.526V31.9286ZM187.526 39.5357H195.133V47.1429H187.526V39.5357ZM179.919 39.5357H187.526V47.1429H179.919V39.5357ZM187.526 47.1429H195.133V54.75H187.526V47.1429ZM195.133 39.5357H202.74V47.1429H195.133V39.5357ZM195.133 47.1429H202.74V54.75H195.133V47.1429ZM195.133 85.1786H202.74V92.7857H195.133V85.1786ZM195.133 92.7857H202.74V100.393H195.133V92.7857ZM187.526 92.7857H195.133V100.393H187.526V92.7857ZM187.526 85.1786H195.133V92.7857H187.526V85.1786ZM179.919 92.7857H187.526V100.393H179.919V92.7857ZM187.526 100.393H195.133V108H187.526V100.393ZM179.919 100.393H187.526V108H179.919V100.393ZM172.312 100.393H179.919V108H172.312V100.393ZM172.312 92.7857H179.919V100.393H172.312V92.7857ZM164.705 100.393H172.312V108H164.705V100.393ZM157.097 100.393H164.705V108H157.097V100.393ZM157.097 92.7857H164.705V100.393H157.097V92.7857ZM164.705 92.7857H172.312V100.393H164.705V92.7857ZM164.705 85.1786H172.312V92.7857H164.705V85.1786ZM157.097 85.1786H164.705V92.7857H157.097V85.1786ZM149.49 92.7857H157.097V100.393H149.49V92.7857ZM149.49 85.1786H157.097V92.7857H149.49V85.1786ZM149.49 77.5714H157.097V85.1786H149.49V77.5714ZM149.49 69.9643H157.097V77.5714H149.49V69.9643ZM149.49 62.3571H157.097V69.9643H149.49V62.3571ZM149.49 54.75H157.097V62.3571H149.49V54.75ZM149.49 47.1429H157.097V54.75H149.49V47.1429ZM157.097 47.1429H164.705V54.75H157.097V47.1429ZM149.49 39.5357H157.097V47.1429H149.49V39.5357ZM164.705 47.1429H172.312V54.75H164.705V47.1429ZM157.097 54.75H164.705V62.3571H157.097V54.75ZM157.097 62.3571H164.705V69.9643H157.097V62.3571ZM157.097 69.9643H164.705V77.5714H157.097V69.9643ZM157.097 77.5714H164.705V85.1786H157.097V77.5714ZM324.494 54.75V62.3571H316.887V54.75H324.494ZM324.494 47.1429V54.75H316.887V47.1429H324.494ZM316.887 47.1429V54.75H309.28V47.1429H316.887ZM316.887 54.75V62.3571H309.28V54.75H316.887ZM316.887 62.3571V69.9643H309.28V62.3571H316.887ZM316.887 69.9643V77.5714H309.28V69.9643H316.887ZM316.887 77.5714V85.1786H309.28V77.5714H316.887ZM324.494 77.5714V85.1786H316.887V77.5714H324.494ZM324.494 69.9643V77.5714H316.887V69.9643H324.494ZM324.494 62.3571V69.9643H316.887V62.3571H324.494ZM324.494 85.1786V92.7857H316.887V85.1786H324.494ZM316.887 85.1786V92.7857H309.28V85.1786H316.887ZM316.887 92.7857V100.393H309.28V92.7857H316.887ZM316.887 100.393V108H309.28V100.393H316.887ZM324.494 100.393V108H316.887V100.393H324.494ZM324.494 92.7857V100.393H316.887V92.7857H324.494ZM286.458 100.393V108H278.851V100.393H286.458ZM278.851 92.7857V100.393H271.244V92.7857H278.851ZM278.851 85.1786V92.7857H271.244V85.1786H278.851ZM278.851 77.5714V85.1786H271.244V77.5714H278.851ZM278.851 69.9643V77.5714H271.244V69.9643H278.851ZM278.851 62.3571V69.9643H271.244V62.3571H278.851ZM278.851 54.75V62.3571H271.244V54.75H278.851ZM286.458 69.9643V77.5714H278.851V69.9643H286.458ZM286.458 77.5714V85.1786H278.851V77.5714H286.458ZM286.458 85.1786V92.7857H278.851V85.1786H286.458ZM286.458 92.7857V100.393H278.851V92.7857H286.458ZM286.458 62.3571V69.9643H278.851V62.3571H286.458ZM294.066 54.75V62.3571H286.458V54.75H294.066ZM294.066 47.1429V54.75H286.458V47.1429H294.066ZM286.458 47.1429V54.75H278.851V47.1429H286.458ZM286.458 54.75V62.3571H278.851V54.75H286.458ZM301.673 47.1429V54.75H294.066V47.1429H301.673ZM324.494 31.9286V39.5357H316.887V31.9286H324.494ZM316.887 31.9286V39.5357H309.28V31.9286H316.887ZM316.887 39.5357V47.1429H309.28V39.5357H316.887ZM324.494 39.5357V47.1429H316.887V39.5357H324.494ZM301.673 100.393V108H294.066V100.393H301.673ZM294.066 100.393V108H286.458V100.393H294.066ZM294.066 92.7857V100.393H286.458V92.7857H294.066ZM301.673 92.7857V100.393H294.066V92.7857H301.673ZM309.28 92.7857V100.393H301.673V92.7857H309.28ZM309.28 47.1429V54.75H301.673V47.1429H309.28ZM309.28 54.75V62.3571H301.673V54.75H309.28ZM301.673 54.75V62.3571H294.066V54.75H301.673ZM347.335 47.1429H354.943V54.75H347.335V47.1429ZM339.728 47.1429H347.335V54.75H339.728V47.1429ZM339.728 54.75H347.335V62.3571H339.728V54.75ZM347.335 54.75H354.943V62.3571H347.335V54.75ZM354.943 47.1429H362.55V54.75H354.943V47.1429ZM362.55 47.1429H370.157V54.75H362.55V47.1429ZM370.157 47.1429H377.764V54.75H370.157V47.1429ZM370.157 54.75H377.764V62.3571H370.157V54.75ZM362.55 54.75H370.157V62.3571H362.55V54.75ZM377.764 54.75H385.371V62.3571H377.764V54.75ZM377.764 62.3571H385.371V69.9643H377.764V62.3571ZM377.764 92.7857H385.371V100.393H377.764V92.7857ZM370.157 92.7857H377.764V100.393H370.157V92.7857ZM370.157 62.3571H377.764V69.9643H370.157V62.3571ZM362.55 92.7857H370.157V100.393H362.55V92.7857ZM370.157 100.393H377.764V108H370.157V100.393ZM362.55 100.393H370.157V108H362.55V100.393ZM354.943 100.393H362.55V108H354.943V100.393ZM347.335 100.393H354.943V108H347.335V100.393ZM339.728 100.393H347.335V108H339.728V100.393ZM339.728 92.7857H347.335V100.393H339.728V92.7857ZM347.335 92.7857H354.943V100.393H347.335V92.7857ZM339.728 85.1786H347.335V92.7857H339.728V85.1786ZM332.121 92.7857H339.728V100.393H332.121V92.7857ZM332.121 85.1786H339.728V92.7857H332.121V85.1786ZM332.121 77.5714H339.728V85.1786H332.121V77.5714ZM332.121 69.9643H339.728V77.5714H332.121V69.9643ZM332.121 62.3571H339.728V69.9643H332.121V62.3571ZM332.121 54.75H339.728V62.3571H332.121V54.75ZM339.728 62.3571H347.335V69.9643H339.728V62.3571ZM339.728 69.9643H347.335V77.5714H339.728V69.9643ZM339.728 77.5714H347.335V85.1786H339.728V77.5714ZM354.943 92.7857H362.55V100.393H354.943V92.7857ZM354.943 54.75H362.55V62.3571H354.943V54.75ZM370.157 69.9643H377.764V77.5714H370.157V69.9643ZM377.764 69.9643H385.371V77.5714H377.764V69.9643ZM347.335 77.5714H354.943V85.1786H347.335V77.5714ZM354.943 77.5714H362.55V85.1786H354.943V77.5714ZM362.55 77.5714H370.157V85.1786H362.55V77.5714ZM370.157 77.5714H377.764V85.1786H370.157V77.5714ZM377.764 77.5714H385.371V85.1786H377.764V77.5714ZM362.55 69.9643H370.157V77.5714H362.55V69.9643ZM354.943 69.9643H362.55V77.5714H354.943V69.9643ZM347.335 69.9643H354.943V77.5714H347.335V69.9643Z" fill="#F1F1F1"/>
<path d="M225.581 47.1429H233.189V54.75H225.581V47.1429ZM217.974 47.1429H225.581V54.75H217.974V47.1429ZM217.974 54.75H225.581V62.3571H217.974V54.75ZM225.581 54.75H233.189V62.3571H225.581V54.75ZM233.189 47.1429H240.796V54.75H233.189V47.1429ZM240.796 47.1429H248.403V54.75H240.796V47.1429ZM248.403 47.1429H256.01V54.75H248.403V47.1429ZM248.403 54.75H256.01V62.3571H248.403V54.75ZM240.796 54.75H248.403V62.3571H240.796V54.75ZM248.403 69.9643H256.01V77.5714H248.403V69.9643ZM256.01 54.75H263.617V62.3571H256.01V54.75ZM256.01 62.3571H263.617V69.9643H256.01V62.3571ZM256.01 69.9643H263.617V77.5714H256.01V69.9643ZM256.01 77.5714H263.617V85.1786H256.01V77.5714ZM256.01 85.1786H263.617V92.7857H256.01V85.1786ZM256.01 92.7857H263.617V100.393H256.01V92.7857ZM248.403 92.7857H256.01V100.393H248.403V92.7857ZM248.403 85.1786H256.01V92.7857H248.403V85.1786ZM248.403 77.5714H256.01V85.1786H248.403V77.5714ZM248.403 62.3571H256.01V69.9643H248.403V62.3571ZM240.796 92.7857H248.403V100.393H240.796V92.7857ZM248.403 100.393H256.01V108H248.403V100.393ZM240.796 100.393H248.403V108H240.796V100.393ZM233.189 100.393H240.796V108H233.189V100.393ZM225.581 100.393H233.189V108H225.581V100.393ZM217.974 100.393H225.581V108H217.974V100.393ZM217.974 92.7857H225.581V100.393H217.974V92.7857ZM225.581 92.7857H233.189V100.393H225.581V92.7857ZM217.974 85.1786H225.581V92.7857H217.974V85.1786ZM210.367 92.7857H217.974V100.393H210.367V92.7857ZM210.367 85.1786H217.974V92.7857H210.367V85.1786ZM210.367 77.5714H217.974V85.1786H210.367V77.5714ZM210.367 69.9643H217.974V77.5714H210.367V69.9643ZM210.367 62.3571H217.974V69.9643H210.367V62.3571ZM210.367 54.75H217.974V62.3571H210.367V54.75ZM217.974 62.3571H225.581V69.9643H217.974V62.3571ZM217.974 69.9643H225.581V77.5714H217.974V69.9643ZM217.974 77.5714H225.581V85.1786H217.974V77.5714ZM233.189 92.7857H240.796V100.393H233.189V92.7857ZM233.189 54.75H240.796V62.3571H233.189V54.75ZM408.212 31.9286H415.819V39.5357H408.212V31.9286ZM400.605 31.9286H408.212V39.5357H400.605V31.9286ZM400.605 39.5357H408.212V47.1429H400.605V39.5357ZM408.212 39.5357H415.819V47.1429H408.212V39.5357ZM415.819 39.5357H423.427V47.1429H415.819V39.5357ZM415.819 31.9286H423.427V39.5357H415.819V31.9286ZM423.427 31.9286H431.034V39.5357H423.427V31.9286ZM431.034 31.9286H438.641V39.5357H431.034V31.9286ZM431.034 39.5357H438.641V47.1429H431.034V39.5357ZM423.427 39.5357H431.034V47.1429H423.427V39.5357ZM423.427 47.1429H431.034V54.75H423.427V47.1429ZM431.034 47.1429H438.641V54.75H431.034V47.1429ZM438.641 39.5357H446.248V47.1429H438.641V39.5357ZM438.641 47.1429H446.248V54.75H438.641V47.1429ZM438.641 54.75H446.248V62.3571H438.641V54.75ZM438.641 62.3571H446.248V69.9643H438.641V62.3571ZM438.641 69.9643H446.248V77.5714H438.641V69.9643ZM438.641 77.5714H446.248V85.1786H438.641V77.5714ZM438.641 85.1786H446.248V92.7857H438.641V85.1786ZM438.641 92.7857H446.248V100.393H438.641V92.7857ZM431.034 92.7857H438.641V100.393H431.034V92.7857ZM431.034 85.1786H438.641V92.7857H431.034V85.1786ZM431.034 77.5714H438.641V85.1786H431.034V77.5714ZM431.034 69.9643H438.641V77.5714H431.034V69.9643ZM431.034 62.3571H438.641V69.9643H431.034V62.3571ZM431.034 54.75H438.641V62.3571H431.034V54.75ZM423.427 85.1786H431.034V92.7857H423.427V85.1786ZM423.427 92.7857H431.034V100.393H423.427V92.7857ZM431.034 100.393H438.641V108H431.034V100.393ZM423.427 100.393H431.034V108H423.427V100.393ZM415.819 100.393H423.427V108H415.819V100.393ZM415.819 92.7857H423.427V100.393H415.819V92.7857ZM408.212 100.393H415.819V108H408.212V100.393ZM400.605 100.393H408.212V108H400.605V100.393ZM400.605 92.7857H408.212V100.393H400.605V92.7857ZM408.212 92.7857H415.819V100.393H408.212V92.7857ZM400.605 85.1786H408.212V92.7857H400.605V85.1786ZM392.998 92.7857H400.605V100.393H392.998V92.7857ZM392.998 85.1786H400.605V92.7857H392.998V85.1786ZM392.998 77.5714H400.605V85.1786H392.998V77.5714ZM392.998 69.9643H400.605V77.5714H392.998V69.9643ZM392.998 62.3571H400.605V69.9643H392.998V62.3571ZM392.998 54.75H400.605V62.3571H392.998V54.75ZM392.998 47.1429H400.605V54.75H392.998V47.1429ZM400.605 47.1429H408.212V54.75H400.605V47.1429ZM392.998 39.5357H400.605V47.1429H392.998V39.5357ZM400.605 54.75H408.212V62.3571H400.605V54.75ZM400.605 62.3571H408.212V69.9643H400.605V62.3571ZM400.605 69.9643H408.212V77.5714H400.605V69.9643ZM400.605 77.5714H408.212V85.1786H400.605V77.5714ZM392.998 100.393H400.605V108H392.998V100.393ZM392.998 31.9286H400.605V39.5357H392.998V31.9286ZM499.518 108H491.911V100.393H499.518V108ZM499.518 100.393H491.911V92.7857H499.518V100.393ZM491.911 100.393H484.304V92.7857H491.911V100.393ZM484.304 108H476.696V100.393H484.304V108ZM476.696 108H469.089V100.393H476.696V108ZM469.089 108H461.482V100.393H469.089V108ZM469.089 100.393H461.482V92.7857H469.089V100.393ZM476.696 100.393H469.089V92.7857H476.696V100.393ZM461.482 100.393H453.875V92.7857H461.482V100.393ZM461.482 92.7857H453.875V85.1786H461.482V92.7857ZM461.482 62.3571H453.875V54.75H461.482V62.3571ZM469.089 62.3571H461.482V54.75H469.089V62.3571ZM469.089 92.7857H461.482V85.1786H469.089V92.7857ZM476.696 62.3571H469.089V54.75H476.696V62.3571ZM469.089 54.75H461.482V47.1429H469.089V54.75ZM476.696 54.75H469.089V47.1429H476.696V54.75ZM484.304 54.75H476.696V47.1429H484.304V54.75ZM491.911 54.75H484.304V47.1429H491.911V54.75ZM499.518 54.75H491.911V47.1429H499.518V54.75ZM499.518 62.3571H491.911V54.75H499.518V62.3571ZM491.911 62.3571H484.304V54.75H491.911V62.3571ZM499.518 69.9643H491.911V62.3571H499.518V69.9643ZM507.125 62.3571H499.518V54.75H507.125V62.3571ZM507.125 69.9643H499.518V62.3571H507.125V69.9643ZM507.125 77.5714H499.518V69.9643H507.125V77.5714ZM507.125 85.1786H499.518V77.5714H507.125V85.1786ZM507.125 92.7857H499.518V85.1786H507.125V92.7857ZM507.125 100.393H499.518V92.7857H507.125V100.393ZM499.518 92.7857H491.911V85.1786H499.518V92.7857ZM499.518 85.1786H491.911V77.5714H499.518V85.1786ZM499.518 77.5714H491.911V69.9643H499.518V77.5714ZM484.304 62.3571H476.696V54.75H484.304V62.3571ZM484.304 100.393H476.696V92.7857H484.304V100.393ZM499.518 100.393H507.125V108H499.518V100.393ZM484.304 69.9643H491.911V77.5714H484.304V69.9643ZM476.696 69.9643H484.304V77.5714H476.696V69.9643ZM469.089 69.9643H476.696V77.5714H469.089V69.9643ZM461.482 69.9643H469.089V77.5714H461.482V69.9643ZM453.875 77.5714H461.482V85.1786H453.875V77.5714ZM461.482 77.5714H469.089V85.1786H461.482V77.5714ZM484.304 77.5714H491.911V85.1786H484.304V77.5714ZM476.696 77.5714H484.304V85.1786H476.696V77.5714ZM469.089 77.5714H476.696V85.1786H469.089V77.5714ZM514.752 31.9286H522.359V39.5357H514.752V31.9286ZM522.359 31.9286H529.966V39.5357H522.359V31.9286ZM522.359 39.5357H529.966V47.1429H522.359V39.5357ZM522.359 47.1429H529.966V54.75H522.359V47.1429ZM522.359 54.75H529.966V62.3571H522.359V54.75ZM522.359 62.3571H529.966V69.9643H522.359V62.3571ZM522.359 69.9643H529.966V77.5714H522.359V69.9643ZM514.752 69.9643H522.359V77.5714H514.752V69.9643ZM514.752 77.5714H522.359V85.1786H514.752V77.5714ZM514.752 85.1786H522.359V92.7857H514.752V85.1786ZM514.752 92.7857H522.359V100.393H514.752V92.7857ZM514.752 100.393H522.359V108H514.752V100.393ZM522.359 100.393H529.966V108H522.359V100.393ZM522.359 92.7857H529.966V100.393H522.359V92.7857ZM522.359 85.1786H529.966V92.7857H522.359V85.1786ZM522.359 77.5714H529.966V85.1786H522.359V77.5714ZM514.752 62.3571H522.359V69.9643H514.752V62.3571ZM514.752 54.75H522.359V62.3571H514.752V54.75ZM514.752 47.1429H522.359V54.75H514.752V47.1429ZM514.752 39.5357H522.359V47.1429H514.752V39.5357ZM583.276 108H575.669V100.393H583.276V108ZM583.276 100.393H575.669V92.7857H583.276V100.393ZM575.669 100.393H568.061V92.7857H575.669V100.393ZM568.061 108H560.454V100.393H568.061V108ZM560.454 108H552.847V100.393H560.454V108ZM552.847 108H545.24V100.393H552.847V108ZM552.847 100.393H545.24V92.7857H552.847V100.393ZM560.454 100.393H552.847V92.7857H560.454V100.393ZM545.24 100.393H537.633V92.7857H545.24V100.393ZM545.24 92.7857H537.633V85.1786H545.24V92.7857ZM545.24 62.3571H537.633V54.75H545.24V62.3571ZM552.847 62.3571H545.24V54.75H552.847V62.3571ZM552.847 92.7857H545.24V85.1786H552.847V92.7857ZM560.454 62.3571H552.847V54.75H560.454V62.3571ZM552.847 54.75H545.24V47.1429H552.847V54.75ZM560.454 54.75H552.847V47.1429H560.454V54.75ZM568.061 54.75H560.454V47.1429H568.061V54.75ZM575.669 54.75H568.061V47.1429H575.669V54.75ZM583.276 54.75H575.669V47.1429H583.276V54.75ZM583.276 62.3571H575.669V54.75H583.276V62.3571ZM575.669 62.3571H568.061V54.75H575.669V62.3571ZM583.276 69.9643H575.669V62.3571H583.276V69.9643ZM590.883 62.3571H583.276V54.75H590.883V62.3571ZM590.883 69.9643H583.276V62.3571H590.883V69.9643ZM590.883 77.5714H583.276V69.9643H590.883V77.5714ZM590.883 85.1786H583.276V77.5714H590.883V85.1786ZM590.883 92.7857H583.276V85.1786H590.883V92.7857ZM590.883 100.393H583.276V92.7857H590.883V100.393ZM583.276 92.7857H575.669V85.1786H583.276V92.7857ZM583.276 85.1786H575.669V77.5714H583.276V85.1786ZM583.276 77.5714H575.669V69.9643H583.276V77.5714ZM568.061 62.3571H560.454V54.75H568.061V62.3571ZM568.061 100.393H560.454V92.7857H568.061V100.393ZM583.276 100.393H590.883V108H583.276V100.393ZM568.061 69.9643H575.669V77.5714H568.061V69.9643ZM560.454 69.9643H568.061V77.5714H560.454V69.9643ZM552.847 69.9643H560.454V77.5714H552.847V69.9643ZM545.24 69.9643H552.847V77.5714H545.24V69.9643ZM537.633 77.5714H545.24V85.1786H537.633V77.5714ZM545.24 77.5714H552.847V85.1786H545.24V77.5714ZM568.061 77.5714H575.669V85.1786H568.061V77.5714ZM560.454 77.5714H568.061V85.1786H560.454V77.5714ZM552.847 77.5714H560.454V85.1786H552.847V77.5714Z" fill="url(#paint1_linear_34_18)"/>
<defs>
<linearGradient id="paint0_linear_34_18" x1="61" y1="10" x2="61" y2="130" gradientUnits="userSpaceOnUse">
<stop stop-color="#2AE5FF"/>
<stop offset="1" stop-color="#17BFFD"/>
</linearGradient>
<linearGradient id="paint1_linear_34_18" x1="374" y1="32" x2="374" y2="108" gradientUnits="userSpaceOnUse">
<stop stop-color="#2AE5FF"/>
<stop offset="1" stop-color="#17BFFD"/>
</linearGradient>
</defs>
</svg>
