<svg width="512" height="512" viewBox="0 0 512 512" fill="none" xmlns="http://www.w3.org/2000/svg">
<path d="M424 292.795C424 293.856 423.579 294.874 422.828 295.624L362.624 355.828C361.874 356.579 360.856 357 359.795 357H275.959C272.395 357 270.61 352.691 273.13 350.172L417.172 206.13C419.691 203.61 424 205.395 424 208.959V292.795ZM239.092 350.172C241.612 352.691 239.828 357 236.264 357H152.658C151.597 357 150.58 356.579 149.829 355.828L89.1716 295.171C88.4214 294.42 88 293.403 88 292.342V208.736C88 205.172 92.3086 203.388 94.8284 205.908L239.092 350.172ZM94.8284 172.092C92.3086 174.612 88 172.828 88 169.264V85.6578C88 84.597 88.4214 83.5795 89.1716 82.8294L149.829 22.1716C150.58 21.4214 151.597 21 152.658 21H236.264C239.828 21 241.612 25.3086 239.092 27.8284L94.8284 172.092ZM422.828 82.3753C423.579 83.1254 424 84.1429 424 85.2037V169.041C424 172.605 419.691 174.39 417.172 171.87L273.13 27.8284C270.61 25.3086 272.395 21 275.959 21H359.795C360.856 21 361.874 21.4214 362.624 22.1716L422.828 82.3753Z" fill="url(#paint0_linear_15_89)"/>
<path d="M227.394 303.787C225.832 302.225 225.832 299.692 227.394 298.13L321.911 203.613C323.473 202.051 326.006 202.051 327.568 203.613L351.374 227.419C352.936 228.981 352.936 231.514 351.374 233.076L256.857 327.593C255.295 329.155 252.763 329.155 251.2 327.593L227.394 303.787ZM392.622 186.172C394.184 187.734 394.184 190.266 392.622 191.828L368.816 215.635C367.254 217.197 364.721 217.197 363.159 215.635L268.642 121.118C267.08 119.556 267.08 117.023 268.642 115.461L292.448 91.6547C294.01 90.0926 296.543 90.0926 298.105 91.6547L392.622 186.172ZM139.242 162.365C140.804 160.803 143.337 160.803 144.899 162.365L239.416 256.882C240.978 258.444 240.978 260.977 239.416 262.539L215.61 286.345C214.048 287.907 211.515 287.907 209.953 286.345L115.436 191.828C113.874 190.266 113.874 187.734 115.436 186.172L139.242 162.365ZM280.663 74.2132C282.226 75.7753 282.226 78.308 280.663 79.8701L186.147 174.387C184.585 175.949 182.052 175.949 180.49 174.387L156.684 150.581C155.122 149.019 155.122 146.486 156.684 144.924L251.2 50.4071C252.763 48.845 255.295 48.845 256.857 50.4071L280.663 74.2132Z" fill="#F1F1F1"/>
<path d="M20.1741 405.286H28.7455V413.857H20.1741V405.286ZM11.6027 405.286H20.1741V413.857H11.6027V405.286ZM11.6027 413.857H20.1741V422.429H11.6027V413.857ZM20.1741 413.857H28.7455V422.429H20.1741V413.857ZM28.7455 413.857H37.317V422.429H28.7455V413.857ZM28.7455 405.286H37.317V413.857H28.7455V405.286ZM37.317 405.286H45.8884V413.857H37.317V405.286ZM45.8884 405.286H54.4598V413.857H45.8884V405.286ZM45.8884 413.857H54.4598V422.429H45.8884V413.857ZM37.317 413.857H45.8884V422.429H37.317V413.857ZM45.8884 422.429H54.4598V431H45.8884V422.429ZM54.4598 413.857H63.0312V422.429H54.4598V413.857ZM54.4598 422.429H63.0312V431H54.4598V422.429ZM54.4598 465.286H63.0312V473.857H54.4598V465.286ZM54.4598 473.857H63.0312V482.429H54.4598V473.857ZM45.8884 473.857H54.4598V482.429H45.8884V473.857ZM45.8884 465.286H54.4598V473.857H45.8884V465.286ZM37.317 473.857H45.8884V482.429H37.317V473.857ZM45.8884 482.429H54.4598V491H45.8884V482.429ZM37.317 482.429H45.8884V491H37.317V482.429ZM28.7455 482.429H37.317V491H28.7455V482.429ZM28.7455 473.857H37.317V482.429H28.7455V473.857ZM20.1741 482.429H28.7455V491H20.1741V482.429ZM11.6027 482.429H20.1741V491H11.6027V482.429ZM11.6027 473.857H20.1741V482.429H11.6027V473.857ZM20.1741 473.857H28.7455V482.429H20.1741V473.857ZM20.1741 465.286H28.7455V473.857H20.1741V465.286ZM11.6027 465.286H20.1741V473.857H11.6027V465.286ZM3.03125 473.857H11.6027V482.429H3.03125V473.857ZM3.03125 465.286H11.6027V473.857H3.03125V465.286ZM3.03125 456.714H11.6027V465.286H3.03125V456.714ZM3.03125 448.143H11.6027V456.714H3.03125V448.143ZM3.03125 439.571H11.6027V448.143H3.03125V439.571ZM3.03125 431H11.6027V439.571H3.03125V431ZM3.03125 422.429H11.6027V431H3.03125V422.429ZM11.6027 422.429H20.1741V431H11.6027V422.429ZM3.03125 413.857H11.6027V422.429H3.03125V413.857ZM20.1741 422.429H28.7455V431H20.1741V422.429ZM11.6027 431H20.1741V439.571H11.6027V431ZM11.6027 439.571H20.1741V448.143H11.6027V439.571ZM11.6027 448.143H20.1741V456.714H11.6027V448.143ZM11.6027 456.714H20.1741V465.286H11.6027V456.714ZM200.219 431V439.571H191.647V431H200.219ZM200.219 422.429V431H191.647V422.429H200.219ZM191.647 422.429V431H183.076V422.429H191.647ZM191.647 431V439.571H183.076V431H191.647ZM191.647 439.571V448.143H183.076V439.571H191.647ZM191.647 448.143V456.714H183.076V448.143H191.647ZM191.647 456.714V465.286H183.076V456.714H191.647ZM200.219 456.714V465.286H191.647V456.714H200.219ZM200.219 448.143V456.714H191.647V448.143H200.219ZM200.219 439.571V448.143H191.647V439.571H200.219ZM200.219 465.286V473.857H191.647V465.286H200.219ZM191.647 465.286V473.857H183.076V465.286H191.647ZM191.647 473.857V482.429H183.076V473.857H191.647ZM191.647 482.429V491H183.076V482.429H191.647ZM200.219 482.429V491H191.647V482.429H200.219ZM200.219 473.857V482.429H191.647V473.857H200.219ZM157.362 482.429V491H148.79V482.429H157.362ZM148.79 473.857V482.429H140.219V473.857H148.79ZM148.79 465.286V473.857H140.219V465.286H148.79ZM148.79 456.714V465.286H140.219V456.714H148.79ZM148.79 448.143V456.714H140.219V448.143H148.79ZM148.79 439.571V448.143H140.219V439.571H148.79ZM148.79 431V439.571H140.219V431H148.79ZM157.362 448.143V456.714H148.79V448.143H157.362ZM157.362 456.714V465.286H148.79V456.714H157.362ZM157.362 465.286V473.857H148.79V465.286H157.362ZM157.362 473.857V482.429H148.79V473.857H157.362ZM157.362 439.571V448.143H148.79V439.571H157.362ZM165.933 431V439.571H157.362V431H165.933ZM165.933 422.429V431H157.362V422.429H165.933ZM157.362 422.429V431H148.79V422.429H157.362ZM157.362 431V439.571H148.79V431H157.362ZM174.504 422.429V431H165.933V422.429H174.504ZM200.219 405.286V413.857H191.647V405.286H200.219ZM191.647 405.286V413.857H183.076V405.286H191.647ZM191.647 413.857V422.429H183.076V413.857H191.647ZM200.219 413.857V422.429H191.647V413.857H200.219ZM174.504 482.429V491H165.933V482.429H174.504ZM165.933 482.429V491H157.362V482.429H165.933ZM165.933 473.857V482.429H157.362V473.857H165.933ZM174.504 473.857V482.429H165.933V473.857H174.504ZM183.076 473.857V482.429H174.504V473.857H183.076ZM183.076 422.429V431H174.504V422.429H183.076ZM183.076 431V439.571H174.504V431H183.076ZM174.504 431V439.571H165.933V431H174.504ZM225.955 422.429H234.527V431H225.955V422.429ZM217.384 422.429H225.955V431H217.384V422.429ZM217.384 431H225.955V439.571H217.384V431ZM225.955 431H234.527V439.571H225.955V431ZM234.527 422.429H243.098V431H234.527V422.429ZM243.098 422.429H251.67V431H243.098V422.429ZM251.67 422.429H260.241V431H251.67V422.429ZM251.67 431H260.241V439.571H251.67V431ZM243.098 431H251.67V439.571H243.098V431ZM260.241 431H268.812V439.571H260.241V431ZM260.241 439.571H268.812V448.143H260.241V439.571ZM260.241 473.857H268.812V482.429H260.241V473.857ZM251.67 473.857H260.241V482.429H251.67V473.857ZM251.67 439.571H260.241V448.143H251.67V439.571ZM243.098 473.857H251.67V482.429H243.098V473.857ZM251.67 482.429H260.241V491H251.67V482.429ZM243.098 482.429H251.67V491H243.098V482.429ZM234.527 482.429H243.098V491H234.527V482.429ZM225.955 482.429H234.527V491H225.955V482.429ZM217.384 482.429H225.955V491H217.384V482.429ZM217.384 473.857H225.955V482.429H217.384V473.857ZM225.955 473.857H234.527V482.429H225.955V473.857ZM217.384 465.286H225.955V473.857H217.384V465.286ZM208.812 473.857H217.384V482.429H208.812V473.857ZM208.812 465.286H217.384V473.857H208.812V465.286ZM208.812 456.714H217.384V465.286H208.812V456.714ZM208.812 448.143H217.384V456.714H208.812V448.143ZM208.812 439.571H217.384V448.143H208.812V439.571ZM208.812 431H217.384V439.571H208.812V431ZM217.384 439.571H225.955V448.143H217.384V439.571ZM217.384 448.143H225.955V456.714H217.384V448.143ZM217.384 456.714H225.955V465.286H217.384V456.714ZM234.527 473.857H243.098V482.429H234.527V473.857ZM234.527 431H243.098V439.571H234.527V431ZM251.67 448.143H260.241V456.714H251.67V448.143ZM260.241 448.143H268.812V456.714H260.241V448.143ZM225.955 456.714H234.527V465.286H225.955V456.714ZM234.527 456.714H243.098V465.286H234.527V456.714ZM243.098 456.714H251.67V465.286H243.098V456.714ZM251.67 456.714H260.241V465.286H251.67V456.714ZM260.241 456.714H268.812V465.286H260.241V456.714ZM243.098 448.143H251.67V456.714H243.098V448.143ZM234.527 448.143H243.098V456.714H234.527V448.143ZM225.955 448.143H234.527V456.714H225.955V448.143Z" fill="#F1F1F1"/>
<path d="M88.7679 422.429H97.3393V431H88.7679V422.429ZM80.1964 422.429H88.7679V431H80.1964V422.429ZM80.1964 431H88.7679V439.571H80.1964V431ZM88.7679 431H97.3393V439.571H88.7679V431ZM97.3393 422.429H105.911V431H97.3393V422.429ZM105.911 422.429H114.482V431H105.911V422.429ZM114.482 422.429H123.054V431H114.482V422.429ZM114.482 431H123.054V439.571H114.482V431ZM105.911 431H114.482V439.571H105.911V431ZM114.482 448.143H123.054V456.714H114.482V448.143ZM123.054 431H131.625V439.571H123.054V431ZM123.054 439.571H131.625V448.143H123.054V439.571ZM123.054 448.143H131.625V456.714H123.054V448.143ZM123.054 456.714H131.625V465.286H123.054V456.714ZM123.054 465.286H131.625V473.857H123.054V465.286ZM123.054 473.857H131.625V482.429H123.054V473.857ZM114.482 473.857H123.054V482.429H114.482V473.857ZM114.482 465.286H123.054V473.857H114.482V465.286ZM114.482 456.714H123.054V465.286H114.482V456.714ZM114.482 439.571H123.054V448.143H114.482V439.571ZM105.911 473.857H114.482V482.429H105.911V473.857ZM114.482 482.429H123.054V491H114.482V482.429ZM105.911 482.429H114.482V491H105.911V482.429ZM97.3393 482.429H105.911V491H97.3393V482.429ZM88.7679 482.429H97.3393V491H88.7679V482.429ZM80.1964 482.429H88.7679V491H80.1964V482.429ZM80.1964 473.857H88.7679V482.429H80.1964V473.857ZM88.7679 473.857H97.3393V482.429H88.7679V473.857ZM80.1964 465.286H88.7679V473.857H80.1964V465.286ZM71.625 473.857H80.1964V482.429H71.625V473.857ZM71.625 465.286H80.1964V473.857H71.625V465.286ZM71.625 456.714H80.1964V465.286H71.625V456.714ZM71.625 448.143H80.1964V456.714H71.625V448.143ZM71.625 439.571H80.1964V448.143H71.625V439.571ZM71.625 431H80.1964V439.571H71.625V431ZM80.1964 439.571H88.7679V448.143H80.1964V439.571ZM80.1964 448.143H88.7679V456.714H80.1964V448.143ZM80.1964 456.714H88.7679V465.286H80.1964V456.714ZM97.3393 473.857H105.911V482.429H97.3393V473.857ZM97.3393 431H105.911V439.571H97.3393V431ZM294.549 405.286H303.121V413.857H294.549V405.286ZM285.978 405.286H294.549V413.857H285.978V405.286ZM285.978 413.857H294.549V422.429H285.978V413.857ZM294.549 413.857H303.121V422.429H294.549V413.857ZM303.121 413.857H311.692V422.429H303.121V413.857ZM303.121 405.286H311.692V413.857H303.121V405.286ZM311.692 405.286H320.263V413.857H311.692V405.286ZM320.263 405.286H328.835V413.857H320.263V405.286ZM320.263 413.857H328.835V422.429H320.263V413.857ZM311.692 413.857H320.263V422.429H311.692V413.857ZM311.692 422.429H320.263V431H311.692V422.429ZM320.263 422.429H328.835V431H320.263V422.429ZM328.835 413.857H337.406V422.429H328.835V413.857ZM328.835 422.429H337.406V431H328.835V422.429ZM328.835 431H337.406V439.571H328.835V431ZM328.835 439.571H337.406V448.143H328.835V439.571ZM328.835 448.143H337.406V456.714H328.835V448.143ZM328.835 456.714H337.406V465.286H328.835V456.714ZM328.835 465.286H337.406V473.857H328.835V465.286ZM328.835 473.857H337.406V482.429H328.835V473.857ZM320.263 473.857H328.835V482.429H320.263V473.857ZM320.263 465.286H328.835V473.857H320.263V465.286ZM320.263 456.714H328.835V465.286H320.263V456.714ZM320.263 448.143H328.835V456.714H320.263V448.143ZM320.263 439.571H328.835V448.143H320.263V439.571ZM320.263 431H328.835V439.571H320.263V431ZM311.692 465.286H320.263V473.857H311.692V465.286ZM311.692 473.857H320.263V482.429H311.692V473.857ZM320.263 482.429H328.835V491H320.263V482.429ZM311.692 482.429H320.263V491H311.692V482.429ZM303.121 482.429H311.692V491H303.121V482.429ZM303.121 473.857H311.692V482.429H303.121V473.857ZM294.549 482.429H303.121V491H294.549V482.429ZM285.978 482.429H294.549V491H285.978V482.429ZM285.978 473.857H294.549V482.429H285.978V473.857ZM294.549 473.857H303.121V482.429H294.549V473.857ZM285.978 465.286H294.549V473.857H285.978V465.286ZM277.406 473.857H285.978V482.429H277.406V473.857ZM277.406 465.286H285.978V473.857H277.406V465.286ZM277.406 456.714H285.978V465.286H277.406V456.714ZM277.406 448.143H285.978V456.714H277.406V448.143ZM277.406 439.571H285.978V448.143H277.406V439.571ZM277.406 431H285.978V439.571H277.406V431ZM277.406 422.429H285.978V431H277.406V422.429ZM285.978 422.429H294.549V431H285.978V422.429ZM277.406 413.857H285.978V422.429H277.406V413.857ZM285.978 431H294.549V439.571H285.978V431ZM285.978 439.571H294.549V448.143H285.978V439.571ZM285.978 448.143H294.549V456.714H285.978V448.143ZM285.978 456.714H294.549V465.286H285.978V456.714ZM277.406 482.429H285.978V491H277.406V482.429ZM277.406 405.286H285.978V413.857H277.406V405.286ZM397.429 491H388.857V482.429H397.429V491ZM397.429 482.429H388.857V473.857H397.429V482.429ZM388.857 482.429H380.286V473.857H388.857V482.429ZM380.286 491H371.714V482.429H380.286V491ZM371.714 491H363.143V482.429H371.714V491ZM363.143 491H354.571V482.429H363.143V491ZM363.143 482.429H354.571V473.857H363.143V482.429ZM371.714 482.429H363.143V473.857H371.714V482.429ZM354.571 482.429H346V473.857H354.571V482.429ZM354.571 473.857H346V465.286H354.571V473.857ZM354.571 439.571H346V431H354.571V439.571ZM363.143 439.571H354.571V431H363.143V439.571ZM363.143 473.857H354.571V465.286H363.143V473.857ZM371.714 439.571H363.143V431H371.714V439.571ZM363.143 431H354.571V422.429H363.143V431ZM371.714 431H363.143V422.429H371.714V431ZM380.286 431H371.714V422.429H380.286V431ZM388.857 431H380.286V422.429H388.857V431ZM397.429 431H388.857V422.429H397.429V431ZM397.429 439.571H388.857V431H397.429V439.571ZM388.857 439.571H380.286V431H388.857V439.571ZM397.429 448.143H388.857V439.571H397.429V448.143ZM406 439.571H397.429V431H406V439.571ZM406 448.143H397.429V439.571H406V448.143ZM406 456.714H397.429V448.143H406V456.714ZM406 465.286H397.429V456.714H406V465.286ZM406 473.857H397.429V465.286H406V473.857ZM406 482.429H397.429V473.857H406V482.429ZM397.429 473.857H388.857V465.286H397.429V473.857ZM397.429 465.286H388.857V456.714H397.429V465.286ZM397.429 456.714H388.857V448.143H397.429V456.714ZM380.286 439.571H371.714V431H380.286V439.571ZM380.286 482.429H371.714V473.857H380.286V482.429ZM397.429 482.429H406V491H397.429V482.429ZM380.286 448.143H388.857V456.714H380.286V448.143ZM371.714 448.143H380.286V456.714H371.714V448.143ZM363.143 448.143H371.714V456.714H363.143V448.143ZM354.571 448.143H363.143V456.714H354.571V448.143ZM346 456.714H354.571V465.286H346V456.714ZM354.571 456.714H363.143V465.286H354.571V456.714ZM380.286 456.714H388.857V465.286H380.286V456.714ZM371.714 456.714H380.286V465.286H371.714V456.714ZM363.143 456.714H371.714V465.286H363.143V456.714ZM414.594 405.286H423.165V413.857H414.594V405.286ZM423.165 405.286H431.737V413.857H423.165V405.286ZM423.165 413.857H431.737V422.429H423.165V413.857ZM423.165 422.429H431.737V431H423.165V422.429ZM423.165 431H431.737V439.571H423.165V431ZM423.165 439.571H431.737V448.143H423.165V439.571ZM423.165 448.143H431.737V456.714H423.165V448.143ZM414.594 448.143H423.165V456.714H414.594V448.143ZM414.594 456.714H423.165V465.286H414.594V456.714ZM414.594 465.286H423.165V473.857H414.594V465.286ZM414.594 473.857H423.165V482.429H414.594V473.857ZM414.594 482.429H423.165V491H414.594V482.429ZM423.165 482.429H431.737V491H423.165V482.429ZM423.165 473.857H431.737V482.429H423.165V473.857ZM423.165 465.286H431.737V473.857H423.165V465.286ZM423.165 456.714H431.737V465.286H423.165V456.714ZM414.594 439.571H423.165V448.143H414.594V439.571ZM414.594 431H423.165V439.571H414.594V431ZM414.594 422.429H423.165V431H414.594V422.429ZM414.594 413.857H423.165V422.429H414.594V413.857ZM491.804 491H483.232V482.429H491.804V491ZM491.804 482.429H483.232V473.857H491.804V482.429ZM483.232 482.429H474.661V473.857H483.232V482.429ZM474.661 491H466.089V482.429H474.661V491ZM466.089 491H457.518V482.429H466.089V491ZM457.518 491H448.946V482.429H457.518V491ZM457.518 482.429H448.946V473.857H457.518V482.429ZM466.089 482.429H457.518V473.857H466.089V482.429ZM448.946 482.429H440.375V473.857H448.946V482.429ZM448.946 473.857H440.375V465.286H448.946V473.857ZM448.946 439.571H440.375V431H448.946V439.571ZM457.518 439.571H448.946V431H457.518V439.571ZM457.518 473.857H448.946V465.286H457.518V473.857ZM466.089 439.571H457.518V431H466.089V439.571ZM457.518 431H448.946V422.429H457.518V431ZM466.089 431H457.518V422.429H466.089V431ZM474.661 431H466.089V422.429H474.661V431ZM483.232 431H474.661V422.429H483.232V431ZM491.804 431H483.232V422.429H491.804V431ZM491.804 439.571H483.232V431H491.804V439.571ZM483.232 439.571H474.661V431H483.232V439.571ZM491.804 448.143H483.232V439.571H491.804V448.143ZM500.375 439.571H491.804V431H500.375V439.571ZM500.375 448.143H491.804V439.571H500.375V448.143ZM500.375 456.714H491.804V448.143H500.375V456.714ZM500.375 465.286H491.804V456.714H500.375V465.286ZM500.375 473.857H491.804V465.286H500.375V473.857ZM500.375 482.429H491.804V473.857H500.375V482.429ZM491.804 473.857H483.232V465.286H491.804V473.857ZM491.804 465.286H483.232V456.714H491.804V465.286ZM491.804 456.714H483.232V448.143H491.804V456.714ZM474.661 439.571H466.089V431H474.661V439.571ZM474.661 482.429H466.089V473.857H474.661V482.429ZM491.804 482.429H500.375V491H491.804V482.429ZM474.661 448.143H483.232V456.714H474.661V448.143ZM466.089 448.143H474.661V456.714H466.089V448.143ZM457.518 448.143H466.089V456.714H457.518V448.143ZM448.946 448.143H457.518V456.714H448.946V448.143ZM440.375 456.714H448.946V465.286H440.375V456.714ZM448.946 456.714H457.518V465.286H448.946V456.714ZM474.661 456.714H483.232V465.286H474.661V456.714ZM466.089 456.714H474.661V465.286H466.089V456.714ZM457.518 456.714H466.089V465.286H457.518V456.714Z" fill="url(#paint1_linear_15_89)"/>
<defs>
<linearGradient id="paint0_linear_15_89" x1="256" y1="21" x2="256" y2="357" gradientUnits="userSpaceOnUse">
<stop stop-color="#2AE5FF"/>
<stop offset="1" stop-color="#17BFFD"/>
</linearGradient>
<linearGradient id="paint1_linear_15_89" x1="256" y1="405" x2="256" y2="491" gradientUnits="userSpaceOnUse">
<stop stop-color="#2AE5FF"/>
<stop offset="1" stop-color="#17BFFD"/>
</linearGradient>
</defs>
</svg>
