<svg width="336" height="336" viewBox="0 0 336 336" fill="none" xmlns="http://www.w3.org/2000/svg">
<path d="M336 271.795C336 272.856 335.579 273.874 334.828 274.624L274.624 334.828C273.874 335.579 272.856 336 271.795 336H187.959C184.395 336 182.61 331.691 185.13 329.172L329.172 185.13C331.691 182.61 336 184.395 336 187.959V271.795ZM151.092 329.172C153.612 331.691 151.828 336 148.264 336H64.6578C63.597 336 62.5795 335.579 61.8294 334.828L1.17157 274.171C0.421424 273.42 0 272.403 0 271.342V187.736C0 184.172 4.30857 182.388 6.82843 184.908L151.092 329.172ZM6.82843 151.092C4.30857 153.612 0 151.828 0 148.264V64.6578C0 63.597 0.421427 62.5795 1.17157 61.8294L61.8294 1.17157C62.5796 0.421424 63.597 0 64.6578 0H148.264C151.828 0 153.612 4.30857 151.092 6.82843L6.82843 151.092ZM334.828 61.3753C335.579 62.1254 336 63.1429 336 64.2038V148.041C336 151.605 331.691 153.39 329.172 150.87L185.13 6.82843C182.61 4.30857 184.395 0 187.959 0H271.795C272.856 0 273.874 0.421419 274.624 1.17155L334.828 61.3753Z" fill="url(#paint0_linear_31_2)"/>
<path d="M139.394 282.787C137.832 281.225 137.832 278.692 139.394 277.13L233.911 182.613C235.473 181.051 238.006 181.051 239.568 182.613L263.374 206.419C264.936 207.981 264.936 210.514 263.374 212.076L168.857 306.593C167.295 308.155 164.763 308.155 163.2 306.593L139.394 282.787ZM304.622 165.172C306.184 166.734 306.184 169.266 304.622 170.828L280.816 194.635C279.254 196.197 276.721 196.197 275.159 194.635L180.642 100.118C179.08 98.5557 179.08 96.023 180.642 94.4609L204.448 70.6547C206.01 69.0926 208.543 69.0926 210.105 70.6547L304.622 165.172ZM51.2421 141.365C52.8042 139.803 55.3369 139.803 56.899 141.365L151.416 235.882C152.978 237.444 152.978 239.977 151.416 241.539L127.61 265.345C126.048 266.907 123.515 266.907 121.953 265.345L27.4359 170.828C25.8738 169.266 25.8738 166.734 27.4359 165.172L51.2421 141.365ZM192.663 53.2132C194.226 54.7753 194.226 57.308 192.663 58.8701L98.1466 153.387C96.5845 154.949 94.0519 154.949 92.4898 153.387L68.6836 129.581C67.1215 128.019 67.1215 125.486 68.6836 123.924L163.2 29.4071C164.763 27.845 167.295 27.845 168.857 29.4071L192.663 53.2132Z" fill="#F1F1F1"/>
<defs>
<linearGradient id="paint0_linear_31_2" x1="168" y1="0" x2="168" y2="336" gradientUnits="userSpaceOnUse">
<stop stop-color="#2AE5FF"/>
<stop offset="1" stop-color="#17BFFD"/>
</linearGradient>
</defs>
</svg>
